<!DOCTYPE svg PUBLIC "-//W3C//DTD SVG 1.1//EN" "http://www.w3.org/Graphics/SVG/1.1/DTD/svg11.dtd">
<!-- Uploaded to: SVG Repo, www.svgrepo.com, Transformed by: SVG Repo Mixer Tools -->
<svg fill="#fff700" width="800px" height="800px" viewBox="0 0 24 24" xmlns="http://www.w3.org/2000/svg" id="contrass" class="icon glyph" stroke="#fff700">
<g id="SVGRepo_bgCarrier" stroke-width="0"/>
<g id="SVGRepo_tracerCarrier" stroke-linecap="round" stroke-linejoin="round"/>
<g id="SVGRepo_iconCarrier">
<path d="M21.9,10.59,20,8.69V6a2,2,0,0,0-2-2H15.31l-1.9-1.9a2,2,0,0,0-2.82,0L8.69,4H6A2,2,0,0,0,4,6V8.69l-1.9,1.9a2,2,0,0,0,0,2.82L4,15.31V18a2,2,0,0,0,2,2H8.69l1.9,1.9a2,2,0,0,0,2.82,0l1.9-1.9H18a2,2,0,0,0,2-2V15.31l1.9-1.9A2,2,0,0,0,21.9,10.59ZM12,17a1,1,0,0,1-1-1V8a1,1,0,0,1,1-1,5,5,0,0,1,0,10Z"/>
</g>
</svg>